<?xml version="1.0" encoding="utf-8"?>
<!-- Svg Vector Icons : http://www.onlinewebfonts.com/icon -->
<!DOCTYPE svg PUBLIC "-//W3C//DTD SVG 1.1//EN" "http://www.w3.org/Graphics/SVG/1.1/DTD/svg11.dtd">
<svg version="1.1" xmlns="http://www.w3.org/2000/svg" xmlns:xlink="http://www.w3.org/1999/xlink" x="0px" y="0px" viewBox="0 0 1000 1000" enable-background="new 0 0 1000 1000" xml:space="preserve">
<metadata> Svg Vector Icons : http://www.onlinewebfonts.com/icon </metadata>
<g><g transform="translate(0.000000,511.000000) scale(0.100000,-0.100000)"><path d="M163.6,4346.7c-38.1-99-66-185.3-63.4-187.8c2.5,0,261.4-104.1,576.1-225.9s581.2-230.9,591.3-241.1c10.2-10.1,220.8-1106.5,464.4-2438.9c243.6-1332.4,459.4-2459.2,479.7-2504.9c38.1-83.8,170-182.7,246.2-182.7c22.8,0,48.2-10.2,55.8-22.9c10.1-12.7-40.6-205.6-111.7-428.9c-68.5-223.3-126.9-451.7-126.9-507.6c0-294.4,200.5-459.4,553.3-461.9h182.7v203v203h-165c-154.8,0-165,2.5-165,58.4c0,30.5,91.4,342.6,197.9,690.3l198,634.5l-261.4,7.6c-159.9,5.1-261.4,17.8-261.4,33c0,35.5-913.6,5004.7-921.2,5012.3c-7.6,7.6-1317.2,522.8-1362.8,535.5C242.3,4529.5,211.8,4481.2,163.6,4346.7z"/><path d="M1894.4,3763c0-35.5,58.4-360.4,66-373.1c5.1-5.1,1687.7-63.4,3740.8-132c2634.3-86.3,3745.9-132,3771.2-152.3c20.3-15.2,35.5-48.2,35.5-71.1c-2.5-81.2-1317.2-4045.3-1350.1-4065.6c-17.8-12.7-1098.9-22.8-2398.3-22.8H3391.8v-203v-203h2380.5c1649.6,0,2408.4,7.6,2479.5,27.9c63.4,17.8,139.6,68.5,203,134.5c99,101.5,121.8,165,774,2147c743.6,2263.8,733.5,2220.6,604,2441.4c-53.3,88.8-104,134.5-203,182.7l-134.5,63.4l-2004.9,66c-1101.4,35.5-2700.3,86.3-3553,114.2c-850.2,25.4-1659.8,53.3-1794.3,60.9C1973.1,3788.4,1894.4,3783.3,1894.4,3763z"/><path d="M4018.6-2246.6c-573.6-96.4-964.4-703-819.7-1268.9c83.8-324.8,266.5-548.2,573.6-695.4c152.3-73.6,185.3-78.7,431.4-78.7s279.2,5.1,436.5,81.2c423.8,200.5,659.8,649.7,583.7,1104c-73.6,431.4-385.7,756.3-807,845.1C4224.2-2218.7,4196.3-2218.7,4018.6-2246.6z M4483-2703.4c230.9-116.7,342.6-307.1,342.6-571c-2.5-208.1-58.4-340.1-205.6-469.5c-132-114.2-236-152.3-416.2-152.3c-266.5,0-456.8,121.8-573.6,368c-167.5,355.3,40.6,779.1,428.9,878.1C4173.4-2622.2,4371.4-2647.6,4483-2703.4z"/><path d="M6914.3-2246.6c-274.1-48.2-576.1-256.3-715.7-492.4c-279.1-477.1-129.4-1111.6,335-1406c289.3-185.3,700.5-210.6,1005-58.4c312.1,152.3,517.7,434,576.1,784.2c48.2,294.4-55.8,634.5-266.5,865.4C7640.1-2325.3,7234.1-2190.8,6914.3-2246.6z M7371.1-2700.9c370.5-190.3,467-670,197.9-984.7c-233.5-271.6-670-286.8-926.3-30.5c-327.4,327.4-187.8,908.6,251.3,1050.7C7033.6-2619.7,7244.2-2634.9,7371.1-2700.9z"/></g></g>
</svg>